<svg xmlns="http://www.w3.org/2000/svg" viewBox="0 0 32 32" width="32" height="32" shape-rendering="crispEdges">
  <!-- Background: TE orange -->
  <rect width="32" height="32" rx="4" fill="#FF6600"/>
  
  <!-- Pixel line chart with a clear dip -->
  <rect x="4" y="6" width="2" height="2" fill="#FFFFFF"/>
  <rect x="6" y="8" width="2" height="2" fill="#FFFFFF"/>
  <rect x="8" y="10" width="2" height="2" fill="#FFFFFF"/>
  <rect x="10" y="12" width="2" height="2" fill="#FFFFFF"/>
  <rect x="12" y="14" width="2" height="2" fill="#FFFFFF"/>
  <rect x="14" y="17" width="2" height="2" fill="#FFFFFF"/>
  <rect x="16" y="20" width="2" height="2" fill="#FFFFFF"/>
  <rect x="18" y="17" width="2" height="2" fill="#FFFFFF"/>
  <rect x="20" y="14" width="2" height="2" fill="#FFFFFF"/>
  <rect x="22" y="11" width="2" height="2" fill="#FFFFFF"/>
  <rect x="24" y="8" width="2" height="2" fill="#FFFFFF"/>
  <rect x="26" y="6" width="2" height="2" fill="#FFFFFF"/>
  <rect x="28" y="4" width="2" height="2" fill="#FFFFFF"/>
  
  <!-- Pixel arrow pointing at the dip -->
  <rect x="20" y="24" width="2" height="2" fill="#FFFFFF"/>
  <rect x="22" y="24" width="2" height="2" fill="#FFFFFF"/>
  <rect x="18" y="22" width="2" height="2" fill="#FFFFFF"/>
  <rect x="20" y="22" width="2" height="2" fill="#FFFFFF"/>
  <rect x="16" y="22" width="2" height="2" fill="#FFFFFF"/>
</svg>